<svg width="20" height="20" viewBox="0 0 20 20" fill="none" xmlns="http://www.w3.org/2000/svg">
<path d="M2.75 7.75C2.55109 7.75 2.36032 7.82902 2.21967 7.96967C2.07902 8.11032 2 8.30109 2 8.5C2 8.69891 2.07902 8.88968 2.21967 9.03033C2.36032 9.17098 2.55109 9.25 2.75 9.25H17.25C17.4489 9.25 17.6397 9.17098 17.7803 9.03033C17.921 8.88968 18 8.69891 18 8.5C18 8.30109 17.921 8.11032 17.7803 7.96967C17.6397 7.82902 17.4489 7.75 17.25 7.75H2.75ZM2.75 10.75C2.55109 10.75 2.36032 10.829 2.21967 10.9697C2.07902 11.1103 2 11.3011 2 11.5C2 11.6989 2.07902 11.8897 2.21967 12.0303C2.36032 12.171 2.55109 12.25 2.75 12.25H17.25C17.4489 12.25 17.6397 12.171 17.7803 12.0303C17.921 11.8897 18 11.6989 18 11.5C18 11.3011 17.921 11.1103 17.7803 10.9697C17.6397 10.829 17.4489 10.75 17.25 10.75H2.75Z" fill="white"/>
</svg>
