<svg width="19" height="16" viewBox="0 0 19 16" fill="none" xmlns="http://www.w3.org/2000/svg">
<path d="M6.2225 1.33333L8.54321 3.60667L8.93679 4H17.6429V14.6667H1.35714V1.33333H6.2225ZM6.2225 4.18622e-07H1.35714C0.997206 4.18622e-07 0.652012 0.140476 0.397498 0.390525C0.142984 0.640573 0 0.979712 0 1.33333V14.6667C0 15.0203 0.142984 15.3594 0.397498 15.6095C0.652012 15.8595 0.997206 16 1.35714 16H17.6429C18.0028 16 18.348 15.8595 18.6025 15.6095C18.857 15.3594 19 15.0203 19 14.6667V4C19 3.64638 18.857 3.30724 18.6025 3.05719C18.348 2.80714 18.0028 2.66667 17.6429 2.66667H9.5L7.18607 0.393334C7.05982 0.268555 6.90968 0.169559 6.7443 0.102052C6.57892 0.0345443 6.40158 -0.000138994 6.2225 4.18622e-07Z" fill="white"/>
</svg>
