<svg width="17" height="16" viewBox="0 0 17 16" fill="none" xmlns="http://www.w3.org/2000/svg">
<path d="M16.6475 7.87156L9.40197 0.654994L8.91631 0.171025C8.80566 0.0614805 8.65601 0 8.50003 0C8.34406 0 8.19441 0.0614805 8.08376 0.171025L0.352602 7.87156C0.239215 7.98411 0.149603 8.11816 0.0890565 8.26579C0.0285098 8.41342 -0.00174505 8.57164 7.77235e-05 8.73112C0.00757824 9.38887 0.556991 9.91394 1.21704 9.91394H2.01397V16H14.9861V9.91394H15.7999C16.1206 9.91394 16.4224 9.78875 16.6493 9.56265C16.7611 9.45167 16.8496 9.31972 16.9098 9.17442C16.97 9.02912 17.0006 8.87336 17 8.71617C17 8.3985 16.8744 8.09766 16.6475 7.87156ZM9.55011 14.6546H7.44996V10.8426H9.55011V14.6546ZM13.636 8.56855V14.6546H10.7502V10.3942C10.7502 9.98121 10.4145 9.64673 10.0001 9.64673H6.99993C6.58553 9.64673 6.24988 9.98121 6.24988 10.3942V14.6546H3.36406V8.56855H1.56393L8.50191 1.66031L8.93506 2.09195L15.438 8.56855H13.636Z" fill="white"/>
</svg>
