<svg width="18" height="16" viewBox="0 0 18 16" fill="none" xmlns="http://www.w3.org/2000/svg">
<path d="M8.25 2.66667C8.25 3.03486 8.58579 3.33333 9 3.33333C9.41421 3.33333 9.75 3.03486 9.75 2.66667C9.75 2.29848 9.41421 2 9 2C8.58579 2 8.25 2.29848 8.25 2.66667Z" stroke="white" stroke-width="2"/>
<path d="M8.25 8.00001C8.25 8.3682 8.58579 8.66668 9 8.66668C9.41421 8.66668 9.75 8.3682 9.75 8.00001C9.75 7.63182 9.41421 7.33334 9 7.33334C8.58579 7.33334 8.25 7.63182 8.25 8.00001Z" stroke="white" stroke-width="2"/>
<path d="M8.25 13.3333C8.25 13.7015 8.58579 14 9 14C9.41421 14 9.75 13.7015 9.75 13.3333C9.75 12.9651 9.41421 12.6667 9 12.6667C8.58579 12.6667 8.25 12.9651 8.25 13.3333Z" stroke="white" stroke-width="2"/>
</svg>
